<?xml version="1.0" encoding="UTF-8" standalone="no"?>
<!-- Created with Inkscape (http://www.inkscape.org/) -->

<svg
   width="529.22314mm"
   height="536.18225mm"
   viewBox="0 0 529.22314 536.18225"
   version="1.1"
   id="svg1"
   xml:space="preserve"
   xmlns="http://www.w3.org/2000/svg"
   xmlns:svg="http://www.w3.org/2000/svg"><defs
     id="defs1" /><g
     id="g52"
     style="fill:#000000;stroke:#000000;stroke-opacity:1"
     transform="matrix(3.0693715,0,0,3.1097326,-59.361331,-206.3933)"><path
       style="fill:#000000;fill-opacity:1;fill-rule:nonzero;stroke:#ffffff;stroke-width:0.916536;stroke-linecap:square;stroke-linejoin:bevel;stroke-dasharray:none;stroke-dashoffset:0;stroke-opacity:1"
       id="path51"
       d="m 35.732211,107.58086 -6.181165,3.4535 0.480336,7.0642 -7.079801,-0.0998 -3.116114,6.35794 -6.08141,-3.62629 -5.8776016,3.94808 -3.4535097,-6.18117 -7.064192,0.48034 0.099755,-7.0798 -6.3579374,-3.11612 3.6262913,-6.08141 -3.9480786,-5.8776 6.1811652,-3.45351 -0.4803353,-7.064192 7.0798009,0.09976 3.1161135,-6.357937 6.0814093,3.626291 5.877602,-3.948079 3.45351,6.181165 7.064192,-0.480335 -0.09976,7.079801 6.357937,3.116113 -3.626291,6.081407 z"
       transform="matrix(3.7717053,0,0,3.7717053,55.554412,-232.89466)" /></g></svg>
