<?xml version="1.0" encoding="UTF-8" standalone="no"?>
<!-- Created with Inkscape (http://www.inkscape.org/) -->

<svg
   width="154.70476mm"
   height="154.70476mm"
   viewBox="0 0 154.70476 154.70476"
   version="1.1"
   id="svg1"
   xmlns="http://www.w3.org/2000/svg"
   xmlns:svg="http://www.w3.org/2000/svg">
  <defs
     id="defs1" />
  <g
     id="layer1"
     transform="translate(-26.770512,-11.017604)">
    <path
       style="fill:#ffff00;fill-opacity:1;stroke:none;stroke-width:4.99999;stroke-dasharray:none;stroke-opacity:1"
       id="path29"
       d="M 121.70366,75.191353 99.155854,79.560772 94.786434,102.10858 73.074749,94.618705 58.016815,111.96097 42.958882,94.618706 21.247196,102.10858 16.877777,79.560772 -5.6700332,75.191353 1.8198436,53.479667 -15.522423,38.421734 1.8198435,23.363801 -5.6700329,1.6521146 16.877777,-2.7173045 l 4.369419,-22.5478105 21.711686,7.489877 15.057934,-17.342266 15.057932,17.342266 21.711686,-7.489876 4.36942,22.5478093 22.547806,4.3694198 -7.48987,21.7116859 17.34226,15.057933 -17.34226,15.057933 z"
       transform="matrix(0.69399904,0.40068053,-0.40068053,0.69399904,79.25412,38.459132)" />
    <path
       style="fill:none;stroke:#000000;stroke-width:4.99999;stroke-dasharray:none;stroke-opacity:1"
       id="path5"
       d="M 121.70366,75.191353 99.155854,79.560772 94.786434,102.10858 73.074749,94.618705 58.016815,111.96097 42.958882,94.618706 21.247196,102.10858 16.877777,79.560772 -5.6700332,75.191353 1.8198436,53.479667 -15.522423,38.421734 1.8198435,23.363801 -5.6700329,1.6521146 16.877777,-2.7173045 l 4.369419,-22.5478105 21.711686,7.489877 15.057934,-17.342266 15.057932,17.342266 21.711686,-7.489876 4.36942,22.5478093 22.547806,4.3694198 -7.48987,21.7116859 17.34226,15.057933 -17.34226,15.057933 z"
       transform="translate(46.106079,49.948252)" />
    <path
       style="fill:#ffff00;fill-opacity:1;stroke:#000000;stroke-width:4.99999;stroke-dasharray:none;stroke-opacity:1"
       id="path27"
       d="M 121.70366,75.191353 99.155854,79.560772 94.786434,102.10858 73.074749,94.618705 58.016815,111.96097 42.958882,94.618706 21.247196,102.10858 16.877777,79.560772 -5.6700332,75.191353 1.8198436,53.479667 -15.522423,38.421734 1.8198435,23.363801 -5.6700329,1.6521146 16.877777,-2.7173045 l 4.369419,-22.5478105 21.711686,7.489877 15.057934,-17.342266 15.057932,17.342266 21.711686,-7.489876 4.36942,22.5478093 22.547806,4.3694198 -7.48987,21.7116859 17.34226,15.057933 -17.34226,15.057933 z"
       transform="matrix(0.77405535,0.2074075,-0.2074075,0.77405535,67.183624,46.596314)" />
    <path
       style="fill:none;stroke:#000000;stroke-width:4.99999;stroke-dasharray:none;stroke-opacity:1"
       id="path28"
       d="M 121.70366,75.191353 99.155854,79.560772 94.786434,102.10858 73.074749,94.618705 58.016815,111.96097 42.958882,94.618706 21.247196,102.10858 16.877777,79.560772 -5.6700332,75.191353 1.8198436,53.479667 -15.522423,38.421734 1.8198435,23.363801 -5.6700329,1.6521146 16.877777,-2.7173045 l 4.369419,-22.5478105 21.711686,7.489877 15.057934,-17.342266 15.057932,17.342266 21.711686,-7.489876 4.36942,22.5478093 22.547806,4.3694198 -7.48987,21.7116859 17.34226,15.057933 -17.34226,15.057933 z"
       transform="matrix(0.69399904,0.40068053,-0.40068053,0.69399904,79.254121,38.459131)" />
    <text
       xml:space="preserve"
       style="font-style:normal;font-variant:normal;font-weight:normal;font-stretch:normal;font-size:10.035px;font-family:Cairo;-inkscape-font-specification:'Cairo, Normal';font-variant-ligatures:normal;font-variant-caps:normal;font-variant-numeric:normal;font-variant-east-asian:normal;text-align:start;writing-mode:lr-tb;direction:ltr;text-anchor:start;fill:#000000;stroke:#000000;stroke-width:0.481763;stroke-dasharray:none;stroke-opacity:1"
       x="62.161354"
       y="89.290695"
       id="text1"><tspan
         id="tspan1"
         style="font-style:normal;font-variant:normal;font-weight:normal;font-stretch:normal;font-size:10.035px;font-family:Cairo;-inkscape-font-specification:'Cairo, Normal';font-variant-ligatures:normal;font-variant-caps:normal;font-variant-numeric:normal;font-variant-east-asian:normal;stroke:#000000;stroke-width:0.481763;stroke-dasharray:none;stroke-opacity:1"
         x="62.161354"
         y="89.290695">احمد محمود عبد الله</tspan></text>
  </g>
</svg>
