<?xml version="1.0" encoding="utf-8"?>
<svg width="100" height="100" viewBox="0 0 100 100" fill="none" xmlns="http://www.w3.org/2000/svg">
  <g>
    <rect width="100" height="100" />
    <path id="Shape" d="M79.1667 8.33333C79.1667 8.33333 69.6146 0.858334 58.3333 0C58.3333 0 57.3167 2.03333 57.3167 2.03333C67.5167 4.52917 72.1958 8.10625 77.0833 12.5C68.6563 8.19792 60.3354 4.16667 45.8333 4.16667C31.3312 4.16667 23.0104 8.19792 14.5833 12.5C19.4708 8.10625 25.0375 4.13542 34.35 2.03333C34.35 2.03333 33.3333 0 33.3333 0C21.4979 1.11875 12.5 8.33333 12.5 8.33333C12.5 8.33333 1.83125 23.8021 0 54.1667C10.7542 66.5687 27.0833 66.6667 27.0833 66.6667C27.0833 66.6667 30.4979 62.1146 30.4979 62.1146C24.7021 60.1 18.1563 56.5021 12.5 50C19.2458 55.1042 29.4271 60.4167 45.8333 60.4167C62.2396 60.4167 72.4208 55.1042 79.1667 50C73.5104 56.5021 66.9646 60.1 61.1687 62.1146C61.1687 62.1146 64.5833 66.6667 64.5833 66.6667C64.5833 66.6667 80.9125 66.5687 91.6667 54.1667C89.8354 23.8021 79.1667 8.33333 79.1667 8.33333C79.1667 8.33333 79.1667 8.33333 79.1667 8.33333ZM32.2917 45.8333C28.2646 45.8333 25 42.1021 25 37.5C25 32.8979 28.2646 29.1667 32.2917 29.1667C36.3187 29.1667 39.5833 32.8979 39.5833 37.5C39.5833 42.1021 36.3187 45.8333 32.2917 45.8333C32.2917 45.8333 32.2917 45.8333 32.2917 45.8333ZM59.375 45.8333C55.3479 45.8333 52.0833 42.1021 52.0833 37.5C52.0833 32.8979 55.3479 29.1667 59.375 29.1667C63.4021 29.1667 66.6667 32.8979 66.6667 37.5C66.6667 42.1021 63.4021 45.8333 59.375 45.8333C59.375 45.8333 59.375 45.8333 59.375 45.8333Z" fill="#8C9EFF" transform="translate(4.167 16.667)" />
  </g>
</svg>