<?xml version="1.0" encoding="utf-8"?>
<svg width="100" height="100" viewBox="0 0 100 100" fill="none" xmlns="http://www.w3.org/2000/svg">
  <g>
    <rect width="100" height="100" />
    <path id="Path" d="M39.5833 0C17.7221 0 0 17.7221 0 39.5833C3.8147e-06 61.4446 17.7221 79.1667 39.5833 79.1667C61.4446 79.1667 79.1667 61.4446 79.1667 39.5833C79.1667 17.7221 61.4446 0 39.5833 0C39.5833 0 39.5833 0 39.5833 0Z" fill="#039BE5" fill-rule="evenodd" transform="translate(10.417 10.417)" />
    <path id="Path" d="M21.0729 33.8229L31.3167 33.8229L32.925 23.4167L21.0708 23.4167C21.0708 23.4167 21.0708 17.7292 21.0708 17.7292C21.0708 13.4063 22.4833 9.57291 26.5271 9.57291C26.5271 9.57291 33.025 9.57291 33.025 9.57291C33.025 9.57291 33.025 0.491667 33.025 0.491667C31.8833 0.3375 29.4687 0 24.9062 0C15.3792 0 9.79375 5.03125 9.79375 16.4937C9.79375 16.4937 9.79375 23.4167 9.79375 23.4167L0 23.4167L0 33.8229L9.79375 33.8229C9.79375 33.8229 9.79375 62.425 9.79375 62.425C11.7333 62.7167 13.6979 62.9146 15.7146 62.9146C17.5375 62.9146 19.3167 62.7479 21.0729 62.5104C21.0729 62.5104 21.0729 33.8229 21.0729 33.8229L21.0729 33.8229Z" fill="#FFFFFF" fill-rule="evenodd" transform="translate(34.285 26.669)" />
  </g>
</svg>