<?xml version="1.0" encoding="utf-8"?>
<svg width="215" height="204" viewBox="0 0 215 204" fill="none" xmlns="http://www.w3.org/2000/svg">
  <path id="Shape" d="M107.509 0C77.4141 0 36.363 0.47168 28.0339 1.21338C18.6873 6.83252 0.185059 28.1045 0 33.6313C0 33.6313 0 42.9038 0 42.9038C0 54.6147 10.947 64.9077 20.8584 64.9077C32.7317 64.9077 42.6384 54.9858 42.6384 43.2842C42.6384 54.9858 52.2654 64.9077 64.1294 64.9077C76.0952 64.9077 85.3494 54.9951 85.3494 43.2842C85.3494 54.9858 95.4348 64.9077 107.401 64.9077C107.401 64.9077 107.599 64.9077 107.599 64.9077C119.565 64.9077 129.651 54.9951 129.651 43.2842C129.651 54.9858 138.997 64.9077 150.871 64.9077C162.744 64.9077 172.38 54.9951 172.38 43.2842C172.38 54.9858 182.286 64.9077 194.16 64.9077C204.071 64.9077 215 54.6147 215 42.9038C215 42.9038 215 33.6313 215 33.6313C214.815 28.1045 196.313 6.83252 186.966 1.21338C157.889 0.184082 137.604 0 107.509 0C107.509 0 107.509 0 107.509 0ZM84.843 62.5171C75.0984 79.3003 50.6162 79.502 41.0659 62.626C35.2356 72.7515 22.0388 76.6611 16.3938 74.7417C14.7463 92.3501 13.6099 182.75 25.5757 197.911C60.7144 206.117 155.303 205.941 189.442 197.911C203.277 183.78 200.179 91.0708 198.624 74.7417C192.979 76.6611 179.78 72.7515 174.042 62.626C164.39 79.502 139.91 79.3003 130.175 62.5171C127.167 67.9878 120.16 75.1943 107.509 75.1943C98.2268 75.5562 89.4795 70.5381 84.843 62.5171C84.843 62.5171 84.843 62.5171 84.843 62.5171ZM65.1228 83.4531C72.5261 83.4531 79.2832 83.4575 87.427 92.5444C100.846 91.1538 114.17 91.1538 127.589 92.5444C135.826 83.5503 142.49 83.5435 149.894 83.5435C173.77 83.5435 179.515 118.871 188.122 149.285C195.896 177.566 185.513 178.316 172.65 178.316C153.493 177.574 142.863 163.667 142.863 149.665C125.002 152.632 96.4927 153.745 72.1538 149.665C72.1538 163.667 61.5229 177.574 42.3665 178.316C29.5029 178.316 19.1208 177.566 26.8945 149.285C35.501 118.685 41.2466 83.5435 65.1228 83.5435C65.1228 83.5435 65.1228 83.4531 65.1228 83.4531C65.1228 83.4531 65.1228 83.4531 65.1228 83.4531ZM107.509 110.129C107.509 110.129 91.8323 124.617 89.0005 129.671C89.0005 129.671 99.249 129.291 99.249 129.291C99.249 129.291 99.249 138.255 99.249 138.255C99.249 138.793 106.824 138.328 107.509 138.328C111.646 138.485 115.769 138.635 115.769 138.255C115.769 138.255 115.769 129.291 115.769 129.291C115.769 129.291 126.018 129.671 126.018 129.671C123.186 124.608 107.509 110.129 107.509 110.129C107.509 110.129 107.509 110.129 107.509 110.129Z" fill="#FFFFFF" />
</svg>