<?xml version="1.0" encoding="utf-8"?>
<svg width="365" height="365" viewBox="0 0 365 365" fill="none" xmlns="http://www.w3.org/2000/svg">
  <g>
    <rect width="365" height="365" />
    <path id="Circle" d="M0 127.75C0 57.1956 57.1956 0 127.75 0C198.304 0 255.5 57.1956 255.5 127.75C255.5 198.304 198.304 255.5 127.75 255.5C57.1956 255.5 0 198.304 0 127.75Z" fill="#40A6DD" fill-rule="evenodd" transform="translate(54.75 54.75)" />
    <path id="Path" d="M255.5 127.75C255.5 198.305 198.305 255.5 127.75 255.5C69.861 255.5 20.9875 216.992 5.2925 164.214C1.8615 152.643 0 140.416 0 127.75C0 124.465 0.109501 121.253 0.365002 118.041C5.32899 52.0125 60.4805 0 127.75 0C198.305 0 255.5 57.1955 255.5 127.75C255.5 127.75 255.5 127.75 255.5 127.75Z" fill="#3070B7" transform="translate(54.75 54.75)" />
    <path id="Path" d="M5.94583 5.7962C4.04053 3.796 2.05859 1.8615 0 0" fill="none" stroke-width="0.5" stroke="#1F212B" stroke-linecap="round" stroke-linejoin="round" transform="translate(257.132 99.867)" />
    <path id="Path" d="M2.78494 3.56606C1.88339 2.3579 0.952667 1.168 0 0" fill="none" stroke-width="0.5" stroke="#1F212B" stroke-linecap="round" stroke-linejoin="round" transform="translate(268.815 112.182)" />
    <path id="Path" d="M0 119.129C14.1584 141.156 36.1021 158.308 63.2764 166.009C122.432 182.774 183.975 148.413 200.739 89.2571C209.649 57.8197 204.119 25.707 188.099 0" fill="none" stroke-width="0.5" stroke="#1F212B" stroke-linecap="round" stroke-linejoin="round" transform="translate(88.87 123.596)" />
    <path id="Path" d="M160.511 46.2758C162.084 72.8953 142.542 95.2588 117.076 98.2117C115.802 98.3577 114.579 98.7993 113.546 99.5585C113.546 99.5585 66.7931 133.971 66.7931 133.971C65.4938 134.927 64.6068 136.31 64.1104 137.847C59.5734 151.881 45.8348 161.802 30.0267 160.477C14.3353 159.163 1.43259 146.257 0.118584 130.569C-1.20638 114.757 8.71433 101.022 22.7486 96.4852C24.2852 95.9888 25.6686 95.1055 26.6249 93.8025C26.6249 93.8025 61.0334 47.0532 61.0334 47.0532C61.7926 46.0203 62.2343 44.7976 62.3803 43.5237C65.3368 18.0577 87.7003 -1.48445 114.316 0.088707C138.877 1.53777 159.058 21.7186 160.511 46.2758C160.511 46.2758 160.511 46.2758 160.511 46.2758Z" fill="#FEFDEF" transform="translate(104.027 100.377)" />
    <path id="Path" d="M160.511 46.2758C162.084 72.8953 142.542 95.2588 117.076 98.2117C115.802 98.3577 114.579 98.7993 113.546 99.5585C113.546 99.5585 66.7931 133.971 66.7931 133.971C65.4938 134.927 64.6068 136.31 64.1104 137.847C59.5734 151.881 45.8348 161.802 30.0267 160.477C14.3353 159.163 1.43259 146.257 0.118584 130.569C-1.20638 114.757 8.71433 101.022 22.7486 96.4852C24.2852 95.9888 25.6686 95.1055 26.6249 93.8025C26.6249 93.8025 61.0334 47.0532 61.0334 47.0532C61.7926 46.0203 62.2343 44.7976 62.3803 43.5237C65.3368 18.0577 87.7003 -1.48445 114.316 0.088707C138.877 1.53777 159.058 21.7186 160.511 46.2758C160.511 46.2758 160.511 46.2758 160.511 46.2758Z" fill="none" stroke-width="0.5" stroke="#1F212B" stroke-linecap="round" stroke-linejoin="round" transform="translate(104.027 100.377)" />
    <path id="Path" d="M175.499 21.2158C165.195 13.7443 153.431 7.91888 140.474 4.24698C81.3183 -12.5175 19.7757 21.8436 3.01125 80.9991C1.69725 85.6347 0.697151 90.2848 0 94.9275" fill="none" stroke-width="0.5" stroke="#1F212B" stroke-linecap="round" stroke-linejoin="round" transform="translate(72.38 71.143)" />
    <path id="Circle" d="M0 34.675C0 15.5245 15.5245 0 34.675 0C53.8255 0 69.35 15.5245 69.35 34.675C69.35 53.8255 53.8255 69.35 34.675 69.35C15.5245 69.35 0 53.8255 0 34.675Z" fill="#3070B7" fill-rule="evenodd" transform="translate(180.675 114.975)" />
    <path id="Circle" d="M0 34.675C0 15.5245 15.5245 0 34.675 0C53.8255 0 69.35 15.5245 69.35 34.675C69.35 53.8255 53.8255 69.35 34.675 69.35C15.5245 69.35 0 53.8255 0 34.675Z" fill="none" stroke-width="0.5" stroke="#1F212B" stroke-linecap="round" stroke-linejoin="round" transform="translate(180.675 114.975)" />
    <path id="Circle" d="M0 23.725C0 10.622 10.622 0 23.725 0C36.828 0 47.45 10.622 47.45 23.725C47.45 36.828 36.828 47.45 23.725 47.45C10.622 47.45 0 36.828 0 23.725Z" fill="#FEFDEF" fill-rule="evenodd" transform="translate(191.625 125.925)" />
    <path id="Circle" d="M0 23.725C0 10.622 10.622 0 23.725 0C36.828 0 47.45 10.622 47.45 23.725C47.45 36.828 36.828 47.45 23.725 47.45C10.622 47.45 0 36.828 0 23.725Z" fill="none" stroke-width="0.5" stroke="#1F212B" stroke-linecap="round" stroke-linejoin="round" transform="translate(191.625 125.925)" />
    <path id="Path" d="M99.134 62.7435C95.265 71.6495 85.0815 75.8835 76.066 72.562C76.066 72.562 5.2925 46.1725 5.2925 46.1725C1.8615 34.602 0 22.3745 0 9.709C0 6.424 0.109501 3.21201 0.365002 0C0.365002 0 88.184 38.106 88.184 38.106C88.184 38.106 89.6805 38.763 89.6805 38.763C98.915 42.778 103.149 53.509 99.134 62.7435C99.134 62.7435 99.134 62.7435 99.134 62.7435Z" fill="#FEFDEF" transform="translate(54.75 172.79)" />
    <path id="Path" d="M0 0L87.819 38.106C87.819 38.106 89.3155 38.763 89.3155 38.763C98.55 42.778 102.784 53.509 98.769 62.7435C94.9 71.6495 84.7165 75.8835 75.701 72.562C75.701 72.562 4.9275 46.1725 4.9275 46.1725" fill="none" stroke-width="0.5" stroke="#1F212B" stroke-linecap="round" stroke-linejoin="round" transform="translate(55.115 172.79)" />
    <path id="Circle" d="M0 127.75C0 57.1956 57.1956 0 127.75 0C198.304 0 255.5 57.1956 255.5 127.75C255.5 198.304 198.304 255.5 127.75 255.5C57.1956 255.5 0 198.304 0 127.75Z" fill="none" stroke-width="1" stroke="#1F212B" stroke-linecap="round" stroke-linejoin="round" transform="translate(54.75 54.75)" />
  </g>
</svg>