<?xml version="1.0" encoding="utf-8"?>
<svg width="100" height="100" viewBox="0 0 100 100" fill="none" xmlns="http://www.w3.org/2000/svg">
  <g>
    <rect width="100" height="100" />
    <path id="Path" d="M71.9884 90.3911C71.9884 90.3911 19.3468 90.3911 19.3468 90.3911C7.40305 90.3911 0.0301354 81.4453 0.0301354 69.5016C0.0301354 69.5016 1.34889 60.1536 0.0301354 38.0453C-0.228198 33.7287 1.2593 22.9557 1.2593 22.9557C1.2593 11.012 9.51555 1.87032 21.4614 1.87032C21.4614 1.87032 38.876 0.484904 44.2676 0.886987C60.828 2.12449 67.7405 0.0411539 71.251 0.0015707C84.4739 -0.146344 90.6655 10.1745 90.6655 22.1182C90.6655 22.1182 91.2551 44.6287 91.2551 48.4641C91.2551 56.8203 89.978 69.3036 89.978 69.3036C91.2551 79.6266 83.9322 90.3911 71.9884 90.3911C71.9884 90.3911 71.9884 90.3911 71.9884 90.3911Z" fill="#010101" fill-rule="evenodd" transform="translate(3.709 5.938)" />
    <path id="Path" d="M56.5288 25.3812C56.7497 25.3417 57.0039 25.3646 57.2268 25.375C57.7518 24.4187 57.158 22.5792 57.0413 21.5312C56.8601 19.9292 56.6809 18.325 56.4997 16.7229C56.458 16.35 56.3955 15.9375 56.1059 15.7C55.9476 15.5688 55.7434 15.5125 55.5434 15.4583C53.6601 14.9479 51.7747 14.4354 49.8913 13.925C49.0809 13.7042 48.2622 13.4833 47.5184 13.0938C45.6184 12.1 44.4247 10.15 43.483 8.22292C42.6726 6.56458 41.9768 4.85208 41.3997 3.1C40.9226 1.64791 41.3018 0.302082 39.6184 0.206249C38.5684 0.145832 37.5184 0.1 36.4684 0.0666656C34.2413 -0.00416756 32.0018 0.0479164 29.7851 0C29.2455 1.925 29.4872 4.04583 29.3914 6.025C29.2788 8.37292 29.2205 10.7229 29.2143 13.0729C29.2059 17.7729 29.4122 22.4729 29.8351 27.1542C29.9893 28.8646 30.1726 30.575 30.2622 32.2896C30.3726 34.4458 30.333 36.6042 30.2914 38.7625C30.2539 40.7687 30.2122 42.7958 29.7018 44.7354C29.0914 47.05 27.8039 49.1833 26.0393 50.8021C25.3122 51.4688 24.4955 52.0562 23.5768 52.4146C21.7997 53.1063 19.7934 52.8896 17.9518 52.3917C16.3622 51.9625 14.7893 51.3125 13.5976 50.1792C11.758 48.4312 11.0601 45.6708 11.5414 43.1792C12.0226 40.6896 13.5768 38.4833 15.5684 36.9125C17.6059 35.3083 20.4143 33.9646 23.008 33.6375C23.1872 33.2167 23.2247 33.1312 23.2268 32.6854C23.2289 32.3271 23.358 32.0375 23.3789 31.6896C23.4289 30.8833 23.3747 30.0521 23.3747 29.2437C23.3747 28.2062 23.5497 27.0083 23.3414 25.9958C23.2726 25.6646 23.1976 25.375 23.0747 25.0896C23.0309 24.9875 23.0247 24.8646 22.9726 24.7583C22.908 24.625 22.7726 24.5458 22.8018 24.3729C22.8455 24.3646 22.8622 24.2083 22.9059 24.2C22.9059 24.2 22.783 24.0521 22.783 24.0521C22.8164 24.0521 22.8726 24.2 22.9059 24.2C21.4163 24.2 19.9539 23.925 18.4768 24.0312C16.9663 24.1417 15.4684 24.4271 14.0205 24.8771C11.1747 25.7604 8.52052 27.2708 6.33718 29.3021C2.6601 32.7229 0.358019 37.5854 0.0413513 42.5979C-0.0586491 44.175 0.0330181 45.7542 0.205936 47.3229C0.366352 48.7729 0.424685 50.3375 1.14135 51.6271C3.27469 55.4646 5.90802 58.6229 9.55385 61.1437C10.5018 61.8 11.4955 62.4062 12.5726 62.8187C14.2684 63.4667 16.1164 63.6083 17.933 63.5938C20.5497 63.5729 23.1622 63.2396 25.7018 62.6083C28.9476 61.8021 31.8372 60.7562 34.1872 58.2875C36.3247 56.0417 37.7955 53.2125 38.7268 50.2729C40.0143 46.2083 40.3497 41.9146 40.6768 37.6625C40.7893 36.2104 40.8997 34.7562 41.0122 33.3042C41.1747 31.2021 41.3309 29.0917 41.2872 26.9813C41.2643 25.9062 41.1934 24.8333 41.0372 23.7687C40.8934 22.7729 40.4476 21.7125 40.3976 20.7396C40.5726 20.7875 40.7643 20.8583 40.9226 20.9562C41.2476 21.1583 41.5643 21.4229 41.8976 21.6083C46.4851 24.1479 51.2997 25.3812 56.5288 25.3812C56.4955 25.3812 55.8497 25.3812 55.8164 25.3812C55.8164 25.3812 56.5288 25.3812 56.5288 25.3812Z" fill="#D6E5E5" fill-rule="evenodd" transform="translate(20.665 20.34)" />
  </g>
</svg>