<?xml version="1.0" encoding="utf-8"?>
<svg width="48" height="48" viewBox="0 0 48 48" fill="none" xmlns="http://www.w3.org/2000/svg">
  <g>
    <rect width="48" height="48" />
    <path id="Path" d="M0 38.303C0 38.303 2.694 28.468 2.694 28.468C1.032 25.59 0.158 22.324 0.159 18.979C0.164 8.514 8.68 0 19.146 0C24.225 0.00199986 28.991 1.979 32.576 5.566C36.16 9.154 38.134 13.922 38.132 18.994C38.128 29.459 29.61 37.974 19.146 37.974C19.145 37.974 19.146 37.974 19.146 37.974C19.146 37.974 19.138 37.974 19.138 37.974C15.961 37.973 12.838 37.176 10.065 35.663C10.065 35.663 0 38.303 0 38.303L0 38.303Z" fill="#FFFFFF" fill-rule="evenodd" transform="translate(4.868 5)" />
    <path id="Path" d="M0.499563 39.303C0.367563 39.303 0.239563 39.251 0.144563 39.155C0.0195627 39.028 -0.0294371 38.843 0.0175629 38.672C0.0175629 38.672 2.65656 29.036 2.65656 29.036C1.02056 26.13 0.157563 22.83 0.159563 19.48C0.163563 8.738 8.90456 0 19.6456 0C24.8556 0.00199986 29.7506 2.031 33.4296 5.713C37.1086 9.396 39.1336 14.29 39.1316 19.494C39.1276 30.235 30.3856 38.974 19.6456 38.974C16.4566 38.973 13.3016 38.186 10.5016 36.697C10.5016 36.697 0.626563 39.286 0.626563 39.286C0.584563 39.298 0.542562 39.303 0.499563 39.303C0.499563 39.303 0.499563 39.303 0.499563 39.303Z" fill="#FFFFFF" fill-rule="evenodd" transform="translate(4.368 4.5)" />
    <path id="Shape" d="M20.1464 1C25.2254 1.002 29.9914 2.979 33.5764 6.566C37.1604 10.154 39.1344 14.922 39.1324 19.994C39.1284 30.459 30.6104 38.974 20.1464 38.974C20.1464 38.974 20.1384 38.974 20.1384 38.974C16.9614 38.973 13.8384 38.176 11.0654 36.663C11.0654 36.663 1.00041 39.303 1.00041 39.303C1.00041 39.303 3.69441 29.468 3.69441 29.468C2.03241 26.59 1.15841 23.324 1.15941 19.979C1.16441 9.514 9.68041 1 20.1464 1C20.1464 1 20.1464 1 20.1464 1ZM20.1464 0C20.1464 0 20.1464 0 20.1464 0C9.13041 0 0.164412 8.962 0.159412 19.979C0.158412 23.346 1.00841 26.664 2.62041 29.601C2.62041 29.601 0.0354116 39.04 0.0354116 39.04C-0.0585885 39.385 0.0374117 39.753 0.289412 40.007C0.479412 40.199 0.736412 40.304 1.00041 40.304C1.08541 40.304 1.17041 40.293 1.25441 40.271C1.25441 40.271 10.9414 37.731 10.9414 37.731C13.7694 39.199 16.9394 39.974 20.1384 39.975C31.1624 39.975 40.1284 31.012 40.1334 19.995C40.1354 14.656 38.0584 9.636 34.2854 5.85999C30.5104 2.083 25.4894 0.00199986 20.1464 0C20.1464 0 20.1464 0 20.1464 0C20.1464 0 20.1464 0 20.1464 0Z" fill="#CFD8DC" fill-rule="evenodd" transform="translate(3.868 4)" />
    <path id="Path" d="M26.944 4.626C23.964 1.644 20.003 0.0010004 15.787 0C7.083 0 0.00400066 7.076 9.53674e-07 15.774C-0.000999451 18.755 0.833001 21.657 2.413 24.17C2.413 24.17 2.789 24.767 2.789 24.767L1.194 30.588L7.167 29.022C7.167 29.022 7.744 29.364 7.744 29.364C10.166 30.802 12.944 31.562 15.776 31.563C15.776 31.563 15.782 31.563 15.782 31.563C24.48 31.563 31.559 24.486 31.562 15.787C31.563 11.572 29.924 7.608 26.944 4.626C26.944 4.626 26.944 4.626 26.944 4.626Z" fill="#40C351" fill-rule="evenodd" transform="translate(8.232 8.206)" />
    <path id="Path" d="M4.903 0.831019C4.548 0.0410204 4.174 0.0250206 3.835 0.0110207C3.558 -0.000979424 3.242 2.09808e-05 2.926 2.09808e-05C2.61 2.09808e-05 2.096 0.119021 1.661 0.594021C1.226 1.06902 0 2.21602 0 4.55002C0 6.88402 1.7 9.14002 1.937 9.45602C2.174 9.77202 5.219 14.715 10.041 16.617C14.048 18.197 14.864 17.883 15.734 17.804C16.604 17.725 18.541 16.657 18.936 15.549C19.331 14.441 19.331 13.492 19.213 13.294C19.094 13.096 18.778 12.978 18.304 12.74C17.83 12.502 15.497 11.355 15.062 11.197C14.627 11.039 14.311 10.96 13.994 11.435C13.678 11.909 12.769 12.978 12.492 13.294C12.215 13.611 11.938 13.651 11.464 13.413C10.99 13.175 9.462 12.675 7.649 11.059C6.239 9.80201 5.287 8.24902 5.01 7.77401C4.733 7.30002 4.98 7.04302 5.218 6.80602C5.431 6.59301 5.692 6.25202 5.93 5.97501C6.167 5.69801 6.246 5.50001 6.404 5.18401C6.562 4.86702 6.483 4.59002 6.364 4.35302C6.247 4.11502 5.325 1.76902 4.903 0.831019C4.903 0.831019 4.903 0.831019 4.903 0.831019Z" fill="#FFFFFF" fill-rule="evenodd" transform="translate(14.365 15.214)" />
  </g>
</svg>