<?xml version="1.0" encoding="utf-8"?>
<svg width="100" height="100" viewBox="0 0 100 100" fill="none" xmlns="http://www.w3.org/2000/svg">
  <g>
    <rect width="100" height="100" />
    <path id="Path" d="M81.6667 51.875C80.8333 56.25 77.2917 59.5833 72.9167 60.2083C66.0417 61.25 54.5833 62.5 41.6667 62.5C28.9583 62.5 17.5 61.25 10.4167 60.2083C6.04167 59.5833 2.5 56.25 1.66667 51.875C0.833333 47.0833 0 40 0 31.25C0 22.5 0.833333 15.4167 1.66667 10.625C2.5 6.25 6.04167 2.91667 10.4167 2.29167C17.2917 1.25 28.75 0 41.6667 0C54.5833 0 65.8333 1.25 72.9167 2.29167C77.2917 2.91667 80.8333 6.25 81.6667 10.625C82.5 15.4167 83.5417 22.5 83.5417 31.25C83.3333 40 82.5 47.0833 81.6667 51.875C81.6667 51.875 81.6667 51.875 81.6667 51.875Z" fill="#FF3D00" fill-rule="evenodd" transform="translate(8.333 18.75)" />
    <path id="Path" d="M0 29.1667L0 0L25 14.5833L0 29.1667Z" fill="#FFFFFF" fill-rule="evenodd" transform="translate(41.667 35.417)" />
  </g>
</svg>